<?xml version="1.0" encoding="utf-8"?>
<!-- Generator: Adobe Illustrator 25.2.0, SVG Export Plug-In . SVG Version: 6.00 Build 0)  -->
<svg version="1.1" id="Layer_1" xmlns="http://www.w3.org/2000/svg" xmlns:xlink="http://www.w3.org/1999/xlink" x="0px" y="0px"
	 viewBox="0 0 1900 400" style="enable-background:new 0 0 1900 400;" xml:space="preserve">
<style type="text/css">
	.st0{fill:#F2F3F7;}
	.st1{fill:url(#SVGID_1_);}
	.st2{fill:url(#SVGID_2_);}
	.st3{fill:url(#SVGID_3_);}
	.st4{fill:url(#SVGID_4_);}
	.st5{fill:url(#SVGID_5_);}
	.st6{fill:url(#SVGID_6_);}
	.st7{fill:url(#SVGID_7_);}
	.st8{fill:url(#SVGID_8_);}
	.st9{fill:url(#SVGID_9_);}
	.st10{fill:url(#SVGID_10_);}
	.st11{fill:url(#SVGID_11_);}
	.st12{fill:url(#SVGID_12_);}
</style>
<g>
	<path class="st0" d="M1062.1,112.7c-5.6,5.1-10.7,9.6-15.6,14.3c-26.5,26.3-52.8,52.8-79.1,79.4c-2.5,2.5-3.6,2.2-5.8,0
		c-29.9-30.1-60-60-89.8-90.1c-1.1-1.1-2-2.5-3.1-3.8c-1.3,2-0.9,3.6-0.9,4.9c0,76,0,151.8,0,227.8c0,5.6,0,5.8-5.6,5.8
		c-5.3,0-10.7,0-16,0c-5.8-0.2-6.2-0.7-6.2-6.2c0-90.3,0-180.8,0-271.1c0-5.6,0-4.9,5.3-5.6c12.9-2,21.6,3.1,30.5,12.5
		c21,22.3,42.8,43.5,64.4,64.9c7.4,7.1,14.9,13.8,21.8,21.4c2.7,2.9,4,1.6,6-0.4c29.4-29.4,59.1-58.6,87.8-88.3
		c6.9-7.1,13.8-10.7,23.9-9.8s10,0.2,10,10.3c0,89.2,0,178.1,0,267.3c0,5.3,0,5.3-5.3,5.3c-65.3,0-130.6,0-195.9,0
		c-5.8,0-5.8,0-5.8-5.8c0-6.2,0.2-12.3,0-18.5c0-2.7,0.9-3.6,3.6-3.6c7.1,0.2,14.3,0,21.4,0c49.7,0,99.6,0,149.3,0
		c3.6,0,5.3-0.4,5.3-4.7c-0.2-67.8,0-135.3,0-203.1C1062.1,114.7,1062.1,114,1062.1,112.7z"/>
	<path class="st0" d="M1292.8,126.7c0,1.6,0,2.9,0,4.5c0,71.8,0,143.6,0,215.1c0,4.2-1.1,5.6-5.3,5.3c-6.5-0.4-12.9-0.2-19.4,0
		c-2.2,0-3.3-0.7-3.1-3.1c0-0.9,0-1.8,0-2.5c0-90.7,0-181.4,0-272.2c0-5.8,0-5.8,6-5.8c4.9,0,9.8,0.2,14.7,0
		c2.9-0.2,4.7,0.7,6.2,3.1c9.4,15.2,18.7,30.1,27.9,45c11.8,19.2,23.6,38.1,35.4,57.3c16.7,27,33.2,53.7,49.9,80.7
		c8,12.9,16,25.6,24.1,38.6c1.8-1.8,1.1-3.3,1.1-4.9c0-71.6,0-142.9,0-214.4c0-5.3,0-5.3,5.3-5.3c6.2,0,12.5,0,18.9,0
		c2.5,0,3.6,0.7,3.3,3.3c0,0.9,0,1.8,0,2.5c0,90.5,0,181.2,0,271.7c0,6.7,0.7,6-6.2,6c-5.1,0-10-0.2-15.2,0
		c-2.7,0.2-4.5-0.9-5.8-3.1c-10.5-17.2-21.2-34.3-31.9-51.5c-11.1-17.8-22.1-35.7-33.2-53.7c-14.5-23.6-29.2-47.3-43.7-70.7
		c-9.6-15.4-19.2-30.8-28.5-46.1C1293.5,126.5,1293.2,126.7,1292.8,126.7z"/>
	<path class="st0" d="M1620.2,52.5c6.2,14.9,12.3,29.2,18.3,43.5c8.2,19.6,16.5,39.2,25,58.8c14.3,33.7,28.3,67.5,42.8,101.2
		c12.7,30.1,25.6,60.2,38.3,90.5c2,4.7,1.8,5.1-3.3,5.1c-59.7,0-119.5,0-179.2,0c-4,0-5.3-1.1-5.1-5.1c0.4-6.2,0.2-12.5,0-18.9
		c-0.2-3.6,0.9-4.7,4.7-4.7c33.4,0.2,66.9,0,100.3,0c12.7,0,25.4-0.2,38.1,0c3.8,0,4-1.1,2.7-4c-10-23.2-19.8-46.4-29.6-69.5
		c-9.6-22.7-19.2-45.5-28.8-68.2c-7.8-18.5-15.6-37-23.6-55.5c0-0.2-0.4-0.2-1.1-0.9c-1.8,4-3.6,8-5.3,12
		c-9.4,21.8-18.7,43.9-27.9,65.8c-8.7,20.7-17.4,41.5-26.1,62c-8.2,19.4-16.7,39-25,58.4c-3.3,8-6.9,16-10.3,24.3
		c-1.1,2.9-2.5,3.8-5.6,3.8c-7.4-0.2-14.7-0.2-22.3,0c-3.3,0-3.8-1.1-2.7-4c14.9-35.2,30.1-70.4,45-105.9
		c14-33.2,27.9-66.4,41.9-99.9c12.3-29.2,24.7-58.2,37-87.4C1619.1,54,1619.6,53.8,1620.2,52.5z"/>
	<path class="st0" d="M703,224.6c0,40.8,0,81.4,0,122.2c0,4-1.1,5.3-5.1,5.1c-6.5-0.4-12.9-0.2-19.4,0c-2.5,0-3.6-0.7-3.3-3.3
		c0.2-1.1,0-2.2,0-3.3c0-80.7,0-161.4,0-242.1c0-6.2,0-6.2-6.5-6.2c-29,0-58,0-86.9,0c-3.8,0-5.1-1.1-4.9-4.9
		c0.2-6.2,0.2-12.5,0-18.9c-0.2-3.6,0.9-4.9,4.7-4.9c7.4,0.2,14.7,0,22.3,0c63.5,0,127.3,0,190.8,0c5.3,0,5.3,0,5.3,5.6
		c0,6.2-0.2,12.7,0,18.9c0.2,3.3-1.1,4.2-4.2,4.2c-29.2-0.2-58.4,0-87.6,0c-5.3,0-5.3,0-5.3,5.3C703,142.8,703,183.8,703,224.6z"/>
	<path class="st0" d="M1163.7,209.6c0-45.2,0-90.3,0-135.5c0-6.9-0.7-6,6.5-6.2c5.8,0,11.8,0.2,17.6,0c3.1,0,4,1.1,3.8,3.8
		c0,0.7,0,1.3,0,2c0,90.5,0,181.2,0,271.7c0,6.7,0.7,6-6.2,6c-5.8,0-11.4-0.2-17.2,0c-3.6,0.2-4.5-1.1-4.5-4.5
		C1163.7,301.2,1163.7,255.5,1163.7,209.6z"/>
</g>
<g>
	
		<radialGradient id="SVGID_1_" cx="299.4518" cy="199.8255" r="181.993" gradientTransform="matrix(1 0 0 -1 0 402)" gradientUnits="userSpaceOnUse">
		<stop  offset="1.065558e-07" style="stop-color:#354677"/>
		<stop  offset="0.1719" style="stop-color:#31416F"/>
		<stop  offset="0.4348" style="stop-color:#25335A"/>
		<stop  offset="0.754" style="stop-color:#131D37"/>
		<stop  offset="1" style="stop-color:#020918"/>
	</radialGradient>
	<path class="st1" d="M155.1,129.2c0-0.3,0-0.4,0-0.7c0.3-11.2,2-26.4,9-43c6.7-16.2,15.2-26.5,17.2-29c5.5-6.8,13.8-15.1,25.5-21.9
		c6.2-3.8,16.2-9.4,30.1-11.2c8.7-1.2,7.7,0.7,18.8,0c20.6-1.4,23.5-8,35.2-5.1c7.1,1.7,9.3,4.9,17.4,5.1c6.5,0.1,8.1-1.9,12.9-0.7
		c6.8,1.6,8,6.4,14.3,9.8c3.8,2,9.8,3.9,19.4,2c-10.7,4.5-17.5,3.5-21.9,1.7c-5.8-2.5-8-6.7-14.3-7.1c-4.9-0.4-5.9,2-11.9,3
		c-9.8,1.7-12.3-3.6-23.2-3.8c-8.4,0-9,3.2-20.9,5.1c-10,1.6-13.8,0-21.1,0.3c-20,0.7-40,14.2-50.6,31c-2.6,4.3-5.9,10.7-7.8,19.4
		c5.6-1.7,14.6-5.1,23.3-12.2c11.4-9.1,11.3-15.2,23.6-22.7c4.1-2.5,15.2-9.1,26.1-6.5c1.9,0.4,3,1,6.4,1.7c4.9,1,9.7,1.3,17.1,0.7
		c5.8-0.4,13.9-1.4,23.6-3.8c-4.3,3.2-11.4,7.2-20.6,8.8c-10.1,1.9-15.4-0.7-25.2,0.7c-5.9,0.9-14.3,3.2-24,10.3l-16.4,14.1
		c2.3-0.6,5.9-1.4,10-3.2c8.3-3.5,11.4-6.8,17.1-9.6c4.8-2.3,6.8-1.9,20-3.5c25.9-3,26.1-5.6,37.2-4.8c1.3,0.1,8,1.3,21.3,3.8
		c11.6,2.2,15.2,2.9,18.4,3.5c25.9,4.6,29.7,0.1,47.2,4.2c15.1,3.6,26.5,10.3,33.6,15.4c4.6,3.3,14.1,10.1,22.2,22.3
		c1,1.4,6.2,9.4,10.3,20.9c3.8,10.6,2.3,12.2,5.8,19.8c5.5,11.9,10.3,10.6,12.6,19.4c2.5,8.8-1.7,12.6,1,23.8
		c1.3,5.2,3.3,9.3,4.9,11.9c-3.6-2.2-8.3-5.8-9.6-11.3c-0.9-3.3,0.3-4.6,0-8.8c-0.1-1.7-0.7-6.8-7.4-16.5
		c-5.2-7.7-7.7-8.5-11.4-13.5c-8.7-11.6-4.2-18.5-11.2-32.4c-5.2-10.4-12.6-16.4-18.4-21.1c-13.3-10.9-26.5-14.3-34.8-16.5
		c-20.9-5.4-39-3.5-50.6-1.2c2.2,1.9,6.1,4.6,11.3,7c13.5,6.1,20,2,36.4,6.7c7,1.9,15.6,4.3,23.3,11.7c7,6.7,4.6,9.3,11.9,15.2
		c7,5.6,12.6,6.4,18.5,14.1c1.6,2,2.9,4.2,3.8,6.8c1.6,4.8,0.9,9.1,0.3,11.4c-0.7-2.8-2.3-6.8-5.6-10.4c-5.5-5.8-10.1-4.1-17.7-10
		c-5.2-4.2-3.9-5.6-10.6-11.4c-2.3-2-7-5.6-13.3-8.7c-7-3.3-13.3-4.6-18.3-5.4c3.6,4.5,8.7,10.1,15.1,16.5
		c10.7,10.7,16.4,16.5,25.6,22.3c8.1,5.2,13.2,6.8,18.5,13.8c3.6,4.6,5.5,9.3,6.4,11.2c1.2,2.6,3.2,8.4,3.9,18
		c1.2,14.8-2.9,15.4-1.3,25.3c1.4,9.7,5.5,10.9,8.3,21.9c2.2,8.7,1.7,16.2,1,21.3l-2,13.3c0.4,2.6,1,8.8-1.9,15.6
		c-3.9,9.1-11.4,13.2-13.6,14.3c3.5-5.9,4.9-11.2,5.6-14.6c0.7-4.2,0.1-4.8,0.9-15.2c0.6-9.4,1.2-10.1,0.9-14.5
		c-0.1-2.5-0.6-5.6-2.6-12.9c-3.8-13.8-5.2-13.2-6.1-18.8c-2.2-13.6,5.9-18.8,2.6-30.6c-1.4-5.1-4.3-8.7-6.5-10.9
		c0.1,3,0.4,7.5,0,13.2c-1.2,16.5-5.6,18.1-6.1,29.1c-0.6,10.7,3.5,11,7,36.5c0.9,6.2,1,9.6,0,13.6c-1.7,6.4-5.1,9-10.7,18
		c-0.3,0.4-4.2,6.7-7.4,13.6c-6.7,14.8-4.1,19.8-9.7,30.6c-4.2,7.8-9.6,12.5-12.7,15.2c-11.2,9.6-19.1,9-32,16.1
		c-6.2,3.5-14.8,9.3-23.6,20c4.3-14.8,11.4-22.5,17.1-26.8c7.4-5.6,11.6-4.6,21.9-12.7c8-6.4,12.9-12.9,15.4-16.2
		c4.9-6.5,7.4-9.8,8.8-14.8c2.2-7.1,0.1-9.4,3-18.4c1.3-3.8,2.3-7.1,5.1-10.7c3.5-4.5,5.9-4.6,8-8.4c2-3.8,1.4-7.2,1.2-12.3
		c-0.6-10.4,1.2-8.7,1-22c0-6.5-0.6-15.5-2.3-26.2c-2,3.6-4.9,9.7-6.7,17.4c-2.9,13.6,1.3,17.5-1.3,30.6c-1.9,9.4-4.1,7.4-10.3,25.3
		c-3.9,11.3-3.5,13.6-7.1,20.9c-2.9,5.8-6.2,12.2-13.2,17.5c-6.7,5.2-13.6,7-18.1,8.3c-10.7,2.8-12.6,0.1-19.3,3.8
		c-0.6,0.3-4.6,3.5-12.7,9.8c-5.8,4.5-7.1,5.6-9.8,6.4c-3.6,0.9-4.8-0.1-10.9,0.7c-4.1,0.6-4.3,1.2-8,1.7c-4.8,0.7-8.1,0.1-10.9,0
		c-4.2-0.3-10.3-0.1-18.3,1.7c5.2-5.5,10-7.2,13.3-7.8c5.5-0.9,8.5,1.2,17.4,0.3c0,0,4.2-0.3,8.8-1.6c11.4-2.9,17.5-9.6,27.1-16.4
		c4.9-3.5,12.5-8.1,22.7-12.3c-5.2,0.4-11.9,1.2-19.4,2.6c-2.6,0.4-9.7,1.7-16.9,3.8c-19.4,5.4-21.9,11.3-36.2,14.8
		c-9.8,2.5-17.7,1.7-26.2,1c-17.8-1.4-20.3-6.2-40-8.3c-11-1.2-11.7,0.3-23.6-1.3c-9.8-1.3-17.4-2.3-25.9-6.7
		c-3-1.6-12.9-6.7-20.3-17.2c-10.9-15.5-3.5-23.9-15.2-39.1c-3.6-4.6-7-7.4-9.6-14.1c-2.6-7-2.6-13.5-2.2-18
		c1,4.6,3.2,11.3,8.4,17.5c4.5,5.5,6.7,5.1,11.2,9.4c11,10.9,4.9,21.4,15.9,35.6c4.9,6.4,10.7,10,13.5,11.7
		c2.8,1.7,9.3,5.4,21.3,7.8c12.2,2.5,21.1,1.9,26.9,1.7c10.7-0.1,26.1,1,45.8,7.7c-3.2-3.5-8.3-8.3-15.6-11.6
		c-8.5-3.8-13.6-2.8-26.8-4.5c-17.5-2.2-26.2-3.3-32.7-8.7c-6.8-5.6-10.6-14.1-16.2-26.9c-3.6-8.3-3.9-11.3-8-15.4
		c-4.9-4.9-8.5-4.3-15.9-10.9c-4.3-3.9-6.8-6.1-8.3-10c-2.2-6.4,1-9.3-1.9-15.6c-1.2-2.8-2-2.6-5.5-8c-2.3-3.6-3.9-6.8-4.9-8.8
		c3.8,2.8,6.7,5.2,8.7,7.1c3.6,3.5,5.4,5.2,6.4,7.8c1.3,3.9-0.3,5.6,0.6,9.3c1,4.5,4.8,7.1,9.3,10.3c14.9,10.4,22.5,15.8,24,18.3
		c3.3,5.4,2.9,8.8,8.7,17.2c1.7,2.5,3,4.5,5.5,6.5c6.1,5.4,13.5,6.2,17.4,6.5c-4.1-3.3-10-8.7-15.4-16.5
		c-7.1-10.3-5.5-13.2-11.7-21.3c-7.5-9.7-11.7-8-23-20.3c-7-7.5-10.9-14.1-11.9-15.9c-1.9-3.2-7.5-13.2-10.6-28
		c-2.5-11.6-0.1-11-2.2-22c-3-16.2-8.1-17.2-11.4-33.8c-1.2-5.6-2.8-14.2-1-25.1c1-6.5,2.2-13.6,7.4-20.1c5.4-6.8,8.7-4.9,19.8-15.6
		c3.8-3.6,7.1-7.5,9.4-13c1.3-3,1.9-5.6,2.2-7.5c0.4,3.9,0.6,9.6-0.7,16.2c-0.9,4.6-1.9,10-5.5,15.4c-4.3,6.5-7.2,5.6-12.3,12.6
		c-3.8,5.4-5.4,10.4-6.4,13.8c-2.8,9.6-2.2,17.5-1.9,19.8c1.3,12.9,6.7,12.9,8,26.5c0.7,6.4-0.1,9.4,1.9,15.5
		c1.7,5.4,4.5,9.3,6.7,11.7c1.4-14.3-1-24.5-3.6-31c-3.2-8.3-6.5-11.2-5.9-18c0.7-8.7,7-10.7,6.5-19.8c-0.3-4.6-2.2-7.7-0.1-11.4
		c1.3-2.5,3.6-3.9,5.5-4.8c-0.6,1.2-1.4,3-2,5.4c-1.2,4.6-0.3,8.4,0.1,11.2c0.6,3.8,1.3,9.3,0.9,16.4
		C152.4,134.8,154.8,132.5,155.1,129.2z"/>
	<g id="XMLID_3_">
		<g>
			
				<radialGradient id="SVGID_2_" cx="304.5255" cy="241.137" r="67.5639" gradientTransform="matrix(1 0 0 -1 0 402)" gradientUnits="userSpaceOnUse">
				<stop  offset="0" style="stop-color:#212B3D"/>
				<stop  offset="0.569" style="stop-color:#1F293B"/>
				<stop  offset="0.774" style="stop-color:#192235"/>
				<stop  offset="0.9196" style="stop-color:#0E1729"/>
				<stop  offset="1" style="stop-color:#040C1F"/>
			</radialGradient>
			<path class="st2" d="M350.8,186.4c15.6,3.8,29.8,1.4,39.4-1.3c-18.5,16.1-33.2,18.7-43.3,18c-1.6-0.1-3-0.3-4.6-0.6h-0.1
				c-5.8-1.3-10.3-3.2-13.2-4.8c-2.3-1.2-4.5-2.6-6.7-4.1c-1.6-1.2-3.2-2.3-4.6-3.5c-0.4-0.3-0.9-0.7-1.2-1
				c-0.1-0.1-0.4-0.3-0.6-0.6c-2.6-2.3-5.2-4.6-7.7-7.1c-1.4-1.4-2.9-2.8-4.2-4.2c-0.6-0.7-1.3-1.3-2-2c-2.5-2.6-4.9-5.1-7.4-7.7
				c-0.6-0.6-1.2-1.2-1.7-1.7c-0.1-0.1-0.3-0.3-0.3-0.4c-2-2-3.8-3.8-5.4-5.4c-4.1-4.1-7.5-6.8-12.2-10c-0.3-0.3-0.6-0.4-1-0.7
				c-2.6-1.7-5.2-3.3-8.1-4.8c-0.3-0.1-0.6-0.3-0.9-0.4c-0.1,0-0.3-0.1-0.6-0.3c-5.1-2.3-10.3-3.9-15.8-4.6
				c-1.2-0.1-2.3-0.3-3.3-0.3c-11.2-0.7-20.4,2-26.5,4.5c17.4-21,31.3-25.2,40.8-24.8C293.2,119.9,304.3,175.1,350.8,186.4z"/>
			
				<radialGradient id="SVGID_3_" cx="289.9232" cy="203.8766" r="53.1813" gradientTransform="matrix(1 0 0 -1 0 402)" gradientUnits="userSpaceOnUse">
				<stop  offset="0" style="stop-color:#FFFFFB"/>
				<stop  offset="0.442" style="stop-color:#FDFDF9"/>
				<stop  offset="0.6012" style="stop-color:#F6F6F3"/>
				<stop  offset="0.7147" style="stop-color:#EBEBE8"/>
				<stop  offset="0.8065" style="stop-color:#DADAD8"/>
				<stop  offset="0.885" style="stop-color:#C4C5C3"/>
				<stop  offset="0.9534" style="stop-color:#A9ABAB"/>
				<stop  offset="1" style="stop-color:#929495"/>
			</radialGradient>
			<path class="st3" d="M342.3,202.5h0.1c-0.4,5.1-2.6,18.8-13.8,31.3c-14.2,15.8-32.9,17.8-37.2,18.1c-1.4-1.4-3.2-3-4.9-4.3
				c-0.1-0.1-0.4-0.3-0.6-0.4c-1.3-1-3.3-2.6-5.9-4.2c-0.4-0.3-1-0.6-1.4-0.9c-1.4-0.9-3-1.7-5.1-2.8c-0.4-0.3-0.9-0.4-1.3-0.6
				c-1.2-0.4-2.3-1-3.5-1.4c-7.4-2.9-14.1-4.2-19.1-4.6c-0.1,0-0.4,0-0.6,0c-3.2-4.5-13.2-20.1-11.3-41.3
				c0.3-3.3,1.9-18.1,12.7-32.6c5.2-7,10.9-11.4,14.9-14.3c0.3,0.1,0.6,0.3,0.9,0.4c2,1,4.9,2.6,8.1,4.8c0.3,0.3,0.6,0.4,1,0.7
				c1.2,0.7,2.2,1.6,3.2,2.3c4.3,3.3,8.4,7.1,12.2,10.9c0.7,0.7,1.3,1.3,2,2c0.1,0.1,0.3,0.3,0.3,0.4c0.6,0.6,1.2,1.2,1.7,1.7
				c2.2,2.2,4.5,4.8,7.4,7.7c0.6,0.7,1.3,1.3,2,2c1.4,1.4,2.8,2.9,4.2,4.2c2.5,2.5,4.9,4.9,7.7,7.1c0.1,0.1,0.4,0.4,0.6,0.6
				c0.3,0.3,0.6,0.4,0.9,0.7c0.1,0.1,0.3,0.3,0.4,0.3c1.4,1.3,3,2.5,4.6,3.5c2.8,2,5.8,3.8,8.8,5.2
				C334.7,200.6,338.3,201.7,342.3,202.5z"/>
			
				<radialGradient id="SVGID_4_" cx="332.2626" cy="203.9756" r="7.6924" gradientTransform="matrix(1 0 0 -1 0 402)" gradientUnits="userSpaceOnUse">
				<stop  offset="0" style="stop-color:#212B3D"/>
				<stop  offset="0.569" style="stop-color:#1F293B"/>
				<stop  offset="0.774" style="stop-color:#192235"/>
				<stop  offset="0.9196" style="stop-color:#0E1729"/>
				<stop  offset="1" style="stop-color:#040C1F"/>
			</radialGradient>
			<path class="st4" d="M342.3,202.5c-3.8-0.7-7.5-1.9-11-3.6c-3-1.4-6.1-3.3-8.8-5.2c2.2,1.4,4.3,2.9,6.7,4.1
				C332,199.3,336.3,201.2,342.3,202.5z"/>
			
				<radialGradient id="SVGID_5_" cx="317.1319" cy="212.4671" r="0.5546" gradientTransform="matrix(1 0 0 -1 0 402)" gradientUnits="userSpaceOnUse">
				<stop  offset="0" style="stop-color:#212B3D"/>
				<stop  offset="0.569" style="stop-color:#1F293B"/>
				<stop  offset="0.774" style="stop-color:#192235"/>
				<stop  offset="0.9196" style="stop-color:#0E1729"/>
				<stop  offset="1" style="stop-color:#040C1F"/>
			</radialGradient>
			<path class="st5" d="M317.8,190c-0.1-0.1-0.3-0.1-0.4-0.3c-0.3-0.3-0.6-0.4-0.9-0.7C316.9,189.4,317.3,189.7,317.8,190z"/>
			
				<radialGradient id="SVGID_6_" cx="312.1331" cy="217.042" r="3.6901" gradientTransform="matrix(1 0 0 -1 0 402)" gradientUnits="userSpaceOnUse">
				<stop  offset="0" style="stop-color:#212B3D"/>
				<stop  offset="0.569" style="stop-color:#1F293B"/>
				<stop  offset="0.774" style="stop-color:#192235"/>
				<stop  offset="0.9196" style="stop-color:#0E1729"/>
				<stop  offset="1" style="stop-color:#040C1F"/>
			</radialGradient>
			<path class="st6" d="M315.9,188.6c-2.6-2.2-5.2-4.6-7.7-7.1C310.8,183.8,313.3,186.2,315.9,188.6z"/>
			
				<radialGradient id="SVGID_7_" cx="283.9583" cy="244.2794" r="8.2256" gradientTransform="matrix(1 0 0 -1 0 402)" gradientUnits="userSpaceOnUse">
				<stop  offset="0" style="stop-color:#212B3D"/>
				<stop  offset="0.569" style="stop-color:#1F293B"/>
				<stop  offset="0.774" style="stop-color:#192235"/>
				<stop  offset="0.9196" style="stop-color:#0E1729"/>
				<stop  offset="1" style="stop-color:#040C1F"/>
			</radialGradient>
			<path class="st7" d="M292.7,165.4c-0.7-0.7-1.3-1.4-2-2c-3.9-3.8-8-7.5-12.2-10.9c-1-0.9-2.2-1.6-3.2-2.3c4.6,3,8.1,5.9,12.2,10
				C289,161.6,290.7,163.4,292.7,165.4z"/>
			
				<radialGradient id="SVGID_8_" cx="288.9683" cy="152.2567" r="2.3195" gradientTransform="matrix(1 0 0 -1 0 402)" gradientUnits="userSpaceOnUse">
				<stop  offset="0" style="stop-color:#212B3D"/>
				<stop  offset="0.569" style="stop-color:#1F293B"/>
				<stop  offset="0.774" style="stop-color:#192235"/>
				<stop  offset="0.9196" style="stop-color:#0E1729"/>
				<stop  offset="1" style="stop-color:#040C1F"/>
			</radialGradient>
			<path class="st8" d="M291.4,251.9L291.4,251.9c-1-1-2.5-2.3-4.2-3.6c-0.1-0.1-0.4-0.4-0.7-0.6C288.2,249,290,250.4,291.4,251.9z"
				/>
			
				<radialGradient id="SVGID_9_" cx="275.9688" cy="161.3507" r="2.0333" gradientTransform="matrix(1 0 0 -1 0 402)" gradientUnits="userSpaceOnUse">
				<stop  offset="0" style="stop-color:#212B3D"/>
				<stop  offset="0.569" style="stop-color:#1F293B"/>
				<stop  offset="0.774" style="stop-color:#192235"/>
				<stop  offset="0.9196" style="stop-color:#0E1729"/>
				<stop  offset="1" style="stop-color:#040C1F"/>
			</radialGradient>
			<path class="st9" d="M278.5,242c-1.4-0.9-3.2-1.7-5.1-2.8C275.3,240.3,277.1,241.1,278.5,242z"/>
			
				<radialGradient id="SVGID_10_" cx="272.7888" cy="163.0246" r="0.5081" gradientTransform="matrix(1 0 0 -1 0 402)" gradientUnits="userSpaceOnUse">
				<stop  offset="0" style="stop-color:#212B3D"/>
				<stop  offset="0.569" style="stop-color:#1F293B"/>
				<stop  offset="0.774" style="stop-color:#192235"/>
				<stop  offset="0.9196" style="stop-color:#0E1729"/>
				<stop  offset="1" style="stop-color:#040C1F"/>
			</radialGradient>
			<path class="st10" d="M273.5,239.3c-0.4-0.1-0.9-0.4-1.3-0.6C272.6,238.8,273,239.1,273.5,239.3z"/>
			
				<radialGradient id="SVGID_11_" cx="245.0066" cy="153.5675" r="37.2519" gradientTransform="matrix(1 0 0 -1 0 402)" gradientUnits="userSpaceOnUse">
				<stop  offset="0" style="stop-color:#212B3D"/>
				<stop  offset="0.569" style="stop-color:#1F293B"/>
				<stop  offset="0.774" style="stop-color:#192235"/>
				<stop  offset="0.9196" style="stop-color:#0E1729"/>
				<stop  offset="1" style="stop-color:#040C1F"/>
			</radialGradient>
			<path class="st11" d="M195.1,236.1c23-4.9,40.7-5.2,53.9-3.6c0.1,0,0.4,0,0.6,0c7.8,1,14.2,2.8,19.1,4.6c1.3,0.6,2.5,1,3.5,1.4
				c0.4,0.3,0.9,0.4,1.3,0.6c1.9,0.9,3.5,1.9,5.1,2.8c0.6,0.3,1,0.6,1.4,0.9c0.1,0.1,0.3,0.3,0.6,0.4c1.4,1,3.3,2.3,5.4,3.8
				c0.1,0.1,0.4,0.3,0.6,0.4c0.3,0.3,0.6,0.4,0.7,0.6c1.7,1.4,3,2.8,4.1,3.8c0,0,0,0,0.1,0c2.5,2.6,4.1,5.2,3.3,7.7
				c-1.3,4.5-10.1,7.1-16.9,4.9c-7.4-2.3-10.4-10.1-12.3-13.2C260.1,241.9,243.9,232.9,195.1,236.1z"/>
		</g>
	</g>
	
		<radialGradient id="SVGID_12_" cx="287.5037" cy="197.7928" r="34.0312" gradientTransform="matrix(1 0 0 -1 0 402)" gradientUnits="userSpaceOnUse">
		<stop  offset="0" style="stop-color:#212B3D"/>
		<stop  offset="0.569" style="stop-color:#1F293B"/>
		<stop  offset="0.774" style="stop-color:#192235"/>
		<stop  offset="0.9196" style="stop-color:#0E1729"/>
		<stop  offset="1" style="stop-color:#040C1F"/>
	</radialGradient>
	<path class="st12" d="M290.8,163.5c4.3,3.8,9,8.1,13.6,12.9c2.9,3,5.5,6.1,8,9c0.9,4.8,2.5,19-5.1,34.3
		c-7.7,15.6-20.3,22.9-24.5,25.2c-2.5-1.7-5.4-3.6-8.8-5.4c-3.2-1.6-6.2-2.9-9-3.8c-1.9-5.8-5.4-18.8-1.4-34.5
		C269.3,178.3,286.6,166.3,290.8,163.5z"/>
</g>
</svg>
